<?xml version="1.0" standalone="no"?>
<!DOCTYPE svg PUBLIC "-//W3C//DTD SVG 20010904//EN"
 "http://www.w3.org/TR/2001/REC-SVG-20010904/DTD/svg10.dtd">
<svg version="1.0" xmlns="http://www.w3.org/2000/svg"
 width="512.000000pt" height="512.000000pt" viewBox="0 0 512.000000 512.000000"
 preserveAspectRatio="xMidYMid meet">
<metadata>
Created by potrace 1.11, written by Peter Selinger 2001-2013
</metadata>
<g transform="translate(0.000000,512.000000) scale(0.100000,-0.100000)"
fill="#000000" stroke="none">
<path d="M2980 5113 c-19 -7 -70 -54 -70 -65 0 -4 -13 -36 -29 -70 -15 -35
-52 -119 -81 -188 -29 -69 -66 -154 -82 -190 -38 -83 -44 -117 -25 -162 19
-46 57 -71 107 -71 53 0 84 23 123 89 17 31 42 72 54 92 12 21 25 43 29 51 4
8 41 73 82 145 127 221 126 218 96 282 -26 56 -148 107 -204 87z"/>
<path d="M3944 4470 c-17 -7 -89 -81 -175 -181 -87 -101 -153 -168 -162 -162
-6 3 -7 1 -3 -6 5 -7 -13 -34 -43 -67 -56 -61 -66 -87 -57 -138 7 -36 48 -79
87 -91 34 -11 84 3 119 35 28 25 36 28 49 17 14 -10 14 -10 3 4 -10 14 -6 21
30 51 24 20 57 49 73 64 17 16 85 77 151 137 67 59 127 121 134 137 18 44 4
95 -37 141 -57 64 -112 83 -169 59z"/>
<path d="M1703 4420 c-314 -103 -349 -479 -91 -970 83 -158 264 -421 388 -564
167 -195 303 -331 536 -541 12 -11 39 -33 60 -50 21 -16 42 -35 48 -40 6 -6
52 -40 101 -77 288 -212 555 -348 783 -398 98 -21 241 -24 312 -5 128 34 231
136 264 262 19 71 19 197 0 293 -9 47 -17 90 -18 95 -1 6 -4 15 -7 20 -4 6
-14 35 -24 65 -10 30 -32 84 -49 120 -17 36 -31 68 -31 72 0 4 -6 13 -12 20
-7 6 -13 16 -13 22 0 22 -227 377 -259 406 -3 3 -28 34 -56 70 -120 157 -305
356 -529 565 -156 146 -466 371 -637 462 -30 16 -62 34 -70 39 -8 5 -16 9 -19
9 -3 0 -34 14 -70 31 -36 17 -90 39 -120 49 -30 10 -59 20 -65 24 -5 3 -14 6
-20 7 -5 1 -48 9 -95 18 -106 21 -238 19 -307 -4z m322 -394 c332 -40 986
-552 1369 -1069 125 -169 252 -387 241 -415 -3 -7 -1 -11 4 -8 9 6 41 -75 59
-144 5 -19 10 -67 11 -107 2 -62 -1 -75 -19 -93 -20 -20 -30 -21 -103 -17 -96
5 -164 23 -267 70 -351 161 -823 564 -1125 962 -148 194 -266 399 -315 545
-27 78 -36 228 -17 254 12 16 99 37 122 29 6 -2 24 -5 40 -7z"/>
<path d="M2539 3319 c-43 -7 -115 -34 -148 -58 -12 -8 -4 -22 44 -78 77 -89
364 -375 438 -437 55 -46 59 -47 72 -30 27 36 56 127 57 183 4 189 -199 407
-395 425 -12 1 -43 -1 -68 -5z"/>
<path d="M1350 3515 c-1 -71 -3 -146 -5 -165 -12 -129 -16 -163 -29 -232 -8
-42 -21 -99 -30 -127 -23 -77 -86 -233 -107 -263 -11 -14 -19 -29 -19 -34 0
-4 -11 -22 -25 -40 -14 -18 -25 -37 -25 -43 0 -6 -4 -11 -10 -11 -5 0 -10 -6
-10 -12 -1 -26 -127 -170 -333 -378 -117 -119 -220 -230 -230 -248 -34 -61
-47 -124 -43 -218 13 -353 362 -770 756 -905 84 -29 107 -33 205 -33 167 -1
178 6 438 265 117 116 228 223 247 238 19 14 44 34 55 45 42 39 219 149 298
185 209 96 403 135 684 136 67 0 119 3 115 6 -4 4 -25 12 -47 19 -81 25 -307
139 -299 151 4 8 3 9 -5 5 -7 -5 -40 10 -78 33 -36 23 -73 39 -82 37 -9 -3
-38 -8 -66 -12 -60 -8 -61 -8 -155 -32 -41 -11 -106 -32 -145 -47 -38 -15 -83
-33 -100 -39 -16 -6 -71 -35 -121 -64 -76 -43 -97 -51 -123 -46 -17 4 -34 11
-37 15 -3 5 -13 9 -23 9 -17 0 -81 31 -166 79 -96 56 -228 178 -312 291 -65
87 -102 157 -133 249 l-29 86 24 42 c14 23 40 71 59 107 19 36 36 63 38 61 2
-2 4 4 5 13 1 9 20 69 42 132 21 64 48 165 59 225 l21 110 -59 100 c-74 127
-141 268 -174 365 l-25 75 -1 -130z"/>
<path d="M4590 3502 c-90 -48 -421 -238 -470 -271 -41 -27 -58 -45 -67 -73
-24 -72 18 -140 94 -154 34 -6 103 20 428 161 28 12 75 33 105 45 119 51 143
108 90 216 -25 51 -40 69 -66 80 -45 19 -73 18 -114 -4z"/>
<path d="M2255 1169 c-24 -11 -111 -90 -213 -192 l-174 -174 74 -35 c40 -19
118 -66 173 -103 317 -217 410 -275 481 -305 68 -29 91 -34 164 -34 122 -1
148 17 323 218 18 21 140 154 192 210 88 95 102 174 41 237 -19 19 -64 50 -99
68 -81 41 -141 43 -260 6 -131 -40 -149 -38 -332 35 -184 74 -213 83 -270 85
-43 3 -71 -2 -100 -16z"/>
</g>
</svg>
